<svg xmlns="http://www.w3.org/2000/svg" viewBox="0 0 432 432">
    <style>
        .st0{display:none}.st2{display:inline}.st5{fill:#fff}.st10{fill:#f04e4c}.st11{display:inline}.st11,.st12{fill:none;stroke:#f04e4c;stroke-miterlimit:10}
    </style>
    <g id="Icons">
        <path class="st5" d="M413.7 432l18.3-18.3v-63.6L350.1 432zM286.4 432L432 286.4v-63.6L222.8 432zM159.1 432L432 159.1V95.5L95.5 432zM0 82L82 0H18.4L0 18.4zM0 209.3L209.3 0h-63.6L0 145.7zM0 336.6L336.6 0h-63.7L0 272.9zM400.2 0L0 400.2V432h31.9L432 31.9V0z"/>
    </g>
    <g id="Guides_x5F_extra" class="st0">
        <g class="st2">
            <path class="st10" d="M9.2 145c4.4 0 8 3.6 8 8s-3.6 8-8 8-8-3.6-8-8 3.6-8 8-8m0-1c-5 0-9 4-9 9s4 9 9 9 9-4 9-9-4-9-9-9z"/>
        </g>
        <g class="st2">
            <path class="st10" d="M9.2 82c4.4 0 8 3.6 8 8s-3.6 8-8 8-8-3.6-8-8 3.6-8 8-8m0-1c-5 0-9 4-9 9s4 9 9 9 9-4 9-9-4-9-9-9z"/>
        </g>
        <path class="st11" d="M149.7 1.1L.3 150.4M85.7 1.1L0 86.7"/>
        <g class="st2">
            <path class="st10" d="M53.8 168c4.4 0 8 3.6 8 8s-3.6 8-8 8-8-3.6-8-8 3.5-8 8-8m0-1c-5 0-9 4-9 9s4 9 9 9 9-4 9-9-4.1-9-9-9z"/>
        </g>
        <g class="st2">
            <path class="st10" d="M175.2 46c4.4 0 8 3.6 8 8s-3.6 8-8 8-8-3.6-8-8 3.6-8 8-8m0-1c-5 0-9 4-9 9s4 9 9 9 9-4 9-9-4-9-9-9z"/>
        </g>
        <path class="st11" d="M216 .7L.7 216"/>
        <g class="st2">
            <path class="st10" d="M67.8 387c12.1 0 22 9.9 22 22s-9.9 22-22 22-22-9.9-22-22 9.9-22 22-22m0-1c-12.7 0-23 10.3-23 23s10.3 23 23 23 23-10.3 23-23-10.3-23-23-23z"/>
        </g>
        <path class="st11" d="M103.8 1.1V431M430.8 103.9H.9M430.8 328.1H.9"/>
        <g class="st2">
            <path class="st10" d="M431.2 1v430H1.2V1h430m1-1H.2v432h432V0z"/>
        </g>
        <g class="st2">
            <path class="st10" d="M423 145c4.4 0 8 3.6 8 8s-3.6 8-8 8-8-3.6-8-8 3.6-8 8-8m0-1c-5 0-9 4-9 9s4 9 9 9 9-4 9-9-4-9-9-9z"/>
        </g>
        <g class="st2">
            <path class="st10" d="M423 82c4.4 0 8 3.6 8 8s-3.6 8-8 8-8-3.6-8-8 3.6-8 8-8m0-1c-5 0-9 4-9 9s4 9 9 9 9-4 9-9-4-9-9-9z"/>
        </g>
        <path class="st11" d="M282.6 1.1L432 150.4M346.6 1.1l85.6 85.6"/>
        <g class="st2">
            <path class="st10" d="M378.5 168c4.4 0 8 3.6 8 8s-3.6 8-8 8-8-3.6-8-8 3.6-8 8-8m0-1c-5 0-9 4-9 9s4 9 9 9 9-4 9-9-4-9-9-9z"/>
        </g>
        <g class="st2">
            <path class="st10" d="M257 46c4.4 0 8 3.6 8 8s-3.6 8-8 8-8-3.6-8-8 3.6-8 8-8m0-1c-5 0-9 4-9 9s4 9 9 9 9-4 9-9-4-9-9-9z"/>
        </g>
        <path class="st11" d="M216.2.7L431.5 216M184.7 32.2L400 247.5"/>
        <g class="st2">
            <path class="st10" d="M364.4 387c12.1 0 22 9.9 22 22s-9.9 22-22 22-22-9.9-22-22 9.9-22 22-22m0-1c-12.7 0-23 10.3-23 23s10.3 23 23 23 23-10.3 23-23-10.3-23-23-23z"/>
        </g>
        <path class="st11" d="M328.5 1.1V431M1.5 103.9h429.8M1.5 328.1h429.8"/>
        <g class="st2">
            <path class="st10" d="M431 1v430H1V1h430m1-1H0v432h432V0z"/>
        </g>
        <g class="st2">
            <path class="st10" d="M9.2 271c4.4 0 8 3.6 8 8s-3.6 8-8 8-8-3.6-8-8 3.6-8 8-8m0-1c-5 0-9 4-9 9s4 9 9 9 9-4 9-9-4-9-9-9z"/>
        </g>
        <g class="st2">
            <path class="st10" d="M9.2 334c4.4 0 8 3.6 8 8s-3.6 8-8 8-8-3.6-8-8 3.6-8 8-8m0-1c-5 0-9 4-9 9s4 9 9 9 9-4 9-9-4-9-9-9z"/>
        </g>
        <path class="st11" d="M149.7 430.9L.3 281.6M85.7 430.9L0 345.3"/>
        <g class="st2">
            <path class="st10" d="M53.8 248c4.4 0 8 3.6 8 8s-3.6 8-8 8-8-3.6-8-8 3.5-8 8-8m0-1c-5 0-9 4-9 9s4 9 9 9 9-4 9-9-4.1-9-9-9z"/>
        </g>
        <g class="st2">
            <path class="st10" d="M175.2 370c4.4 0 8 3.6 8 8s-3.6 8-8 8-8-3.6-8-8 3.6-8 8-8m0-1c-5 0-9 4-9 9s4 9 9 9 9-4 9-9-4-9-9-9z"/>
        </g>
        <path class="st11" d="M216 431.3L.7 216"/>
        <g class="st2">
            <path class="st10" d="M67.8 1c12.1 0 22 9.9 22 22s-9.9 22-22 22-22-9.9-22-22 9.9-22 22-22m0-1c-12.7 0-23 10.3-23 23s10.3 23 23 23 23-10.3 23-23-10.3-23-23-23z"/>
        </g>
        <path class="st11" d="M103.8 430.9V1M430.8 328.1H.9M430.8 103.9H.9"/>
        <g class="st2">
            <path class="st10" d="M431.2 1v430H1.2V1h430m1-1H.2v432h432V0z"/>
        </g>
        <g class="st2">
            <path class="st10" d="M423 271c4.4 0 8 3.6 8 8s-3.6 8-8 8-8-3.6-8-8 3.6-8 8-8m0-1c-5 0-9 4-9 9s4 9 9 9 9-4 9-9-4-9-9-9z"/>
        </g>
        <g class="st2">
            <path class="st10" d="M423 334c4.4 0 8 3.6 8 8s-3.6 8-8 8-8-3.6-8-8 3.6-8 8-8m0-1c-5 0-9 4-9 9s4 9 9 9 9-4 9-9-4-9-9-9z"/>
        </g>
        <path class="st11" d="M282.6 430.9L432 281.6M346.6 430.9l85.6-85.6"/>
        <g class="st2">
            <path class="st10" d="M378.5 248c4.4 0 8 3.6 8 8s-3.6 8-8 8-8-3.6-8-8 3.6-8 8-8m0-1c-5 0-9 4-9 9s4 9 9 9 9-4 9-9-4-9-9-9z"/>
        </g>
        <g class="st2">
            <path class="st10" d="M257 370c4.4 0 8 3.6 8 8s-3.6 8-8 8-8-3.6-8-8 3.6-8 8-8m0-1c-5 0-9 4-9 9s4 9 9 9 9-4 9-9-4-9-9-9z"/>
        </g>
        <path class="st11" d="M216.2 431.3L431.5 216M184.9 400l215.3-215.3"/>
        <g class="st2">
            <path class="st10" d="M364.4 1c12.1 0 22 9.9 22 22s-9.9 22-22 22-22-9.9-22-22 9.9-22 22-22m0-1c-12.7 0-23 10.3-23 23s10.3 23 23 23 23-10.3 23-23-10.3-23-23-23z"/>
        </g>
        <path class="st11" d="M328.5 430.9V1M1.5 328.1h429.8M1.5 103.9h429.8"/>
        <g class="st2">
            <path class="st10" d="M431 1v430H1V1h430m1-1H0v432h432V0z"/>
        </g>
        <g class="st2">
            <path class="st10" d="M260.9 55.6c11.9 0 21.5 9.6 21.5 21.5s-9.6 21.5-21.5 21.5-21.5-9.6-21.5-21.5 9.7-21.5 21.5-21.5m0-1c-12.4 0-22.5 10.1-22.5 22.5s10.1 22.5 22.5 22.5 22.5-10.1 22.5-22.5-10-22.5-22.5-22.5z"/>
        </g>
        <g class="st2">
            <path class="st10" d="M239.2 355.5c11.9 0 21.5 9.6 21.5 21.5s-9.6 21.5-21.5 21.5-21.5-9.6-21.5-21.5 9.7-21.5 21.5-21.5m0-1c-12.4 0-22.5 10.1-22.5 22.5s10.1 22.5 22.5 22.5 22.5-10.1 22.5-22.5-10-22.5-22.5-22.5z"/>
        </g>
    </g>
    <g id="Guides_x5F_basic" class="st0">
        <path class="st11" d="M0 45.1h432M.5 387.1h432M239.4.3v432M193.6 0v432M45.5 1.2v429.9M387.5.1v432"/>
        <g class="st2">
            <path class="st10" d="M431.5 1.1v430H1.5V1.1h430m1-1H.5v432h432V.1z"/>
        </g>
        <g class="st2">
            <path class="st12" d="M216.6 0v431.5"/>
        </g>
        <circle class="st11" cx="216.5" cy="216.1" r="170.5"/>
        <g class="st2">
            <path class="st10" d="M56.5 1.1c30.3 0 55 24.7 55 55s-24.7 55-55 55-55-24.7-55-55 24.7-55 55-55m0-1C25.6.1.5 25.2.5 56.1s25.1 56 56 56 56-25.1 56-56-25.1-56-56-56z"/>
        </g>
        <g class="st2">
            <path class="st10" d="M376.5 1.1c30.3 0 55 24.7 55 55s-24.7 55-55 55-55-24.7-55-55 24.7-55 55-55m0-1c-30.9 0-56 25.1-56 56s25.1 56 56 56 56-25.1 56-56-25.1-56-56-56z"/>
        </g>
        <g class="st2">
            <path class="st10" d="M56.5 321.2c30.3 0 55 24.7 55 55s-24.7 55-55 55-55-24.7-55-55 24.7-55 55-55m0-1c-30.9 0-56 25.1-56 56s25.1 56 56 56 56-25.1 56-56-25.1-56-56-56z"/>
        </g>
        <g class="st2">
            <path class="st10" d="M376.5 321.2c30.3 0 55 24.7 55 55s-24.7 55-55 55-55-24.7-55-55 24.7-55 55-55m0-1c-30.9 0-56 25.1-56 56s25.1 56 56 56 56-25.1 56-56-25.1-56-56-56z"/>
        </g>
        <g class="st2">
            <path class="st10" d="M74.5 46.2C90.2 46.2 103 59 103 74.7s-12.8 28.5-28.5 28.5S46 90.4 46 74.7s12.8-28.5 28.5-28.5m0-1C58.2 45.2 45 58.4 45 74.7s13.2 29.5 29.5 29.5S104 91 104 74.7 90.8 45.2 74.5 45.2z"/>
        </g>
        <g class="st2">
            <path class="st10" d="M357.7 46.2c15.7 0 28.5 12.8 28.5 28.5s-12.8 28.5-28.5 28.5-28.5-12.8-28.5-28.5 12.8-28.5 28.5-28.5m0-1c-16.3 0-29.5 13.2-29.5 29.5s13.2 29.5 29.5 29.5 29.5-13.2 29.5-29.5-13.2-29.5-29.5-29.5z"/>
        </g>
        <g class="st2">
            <path class="st10" d="M74.5 329.1c15.7 0 28.5 12.8 28.5 28.5s-12.8 28.5-28.5 28.5S46 373.3 46 357.6s12.8-28.5 28.5-28.5m0-1c-16.3 0-29.5 13.2-29.5 29.5s13.2 29.5 29.5 29.5 29.5-13.2 29.5-29.5-13.2-29.5-29.5-29.5z"/>
        </g>
        <g class="st2">
            <path class="st10" d="M357.7 329.1c15.7 0 28.5 12.8 28.5 28.5s-12.8 28.5-28.5 28.5-28.5-12.8-28.5-28.5 12.8-28.5 28.5-28.5m0-1c-16.3 0-29.5 13.2-29.5 29.5s13.2 29.5 29.5 29.5 29.5-13.2 29.5-29.5-13.2-29.5-29.5-29.5z"/>
        </g>
        <path class="st11" d="M432 33L33.2 431.7M400 .3L1.1 399.2"/>
        <g class="st2">
            <path class="st12" d="M432.5.1l-432 432"/>
        </g>
        <path class="st11" d="M399.5 431.5L.5 32.5M431.5 398.8L33.5.8"/>
        <g class="st2">
            <path class="st12" d="M432.5 432.1L.5.1"/>
        </g>
        <g class="st2">
            <path class="st10" d="M23.5 194.1c12.1 0 22 9.9 22 22s-9.9 22-22 22-22-9.9-22-22 9.9-22 22-22m0-1c-12.7 0-23 10.3-23 23s10.3 23 23 23 23-10.3 23-23-10.3-23-23-23z"/>
        </g>
        <g class="st2">
            <path class="st10" d="M409.5 194.1c12.1 0 22 9.9 22 22s-9.9 22-22 22-22-9.9-22-22 9.9-22 22-22m0-1c-12.7 0-23 10.3-23 23s10.3 23 23 23 23-10.3 23-23-10.3-23-23-23z"/>
        </g>
        <g class="st2">
            <path class="st10" d="M216.5 1.1c12.1 0 22 9.9 22 22s-9.9 22-22 22-22-9.9-22-22 9.9-22 22-22m0-1c-12.7 0-23 10.3-23 23s10.3 23 23 23 23-10.3 23-23-10.3-23-23-23z"/>
        </g>
        <g class="st2">
            <path class="st10" d="M216.5 387.1c12.1 0 22 9.9 22 22s-9.9 22-22 22-22-9.9-22-22 9.9-22 22-22m0-1c-12.7 0-23 10.3-23 23s10.3 23 23 23 23-10.3 23-23-10.3-23-23-23z"/>
        </g>
        <path class="st11" d="M431.5 239H.2M431.8 193.3H.5"/>
        <g class="st2">
            <path class="st12" d="M431.7 216.3H1"/>
        </g>
    </g>
</svg>
