<svg id="Icons" xmlns="http://www.w3.org/2000/svg" viewBox="0 0 432 432">
    <defs>
        <style>
            .cls-1{fill:#fff}
        </style>
    </defs>
    <path class="cls-1" d="M233.21 69h-30.42a9 9 0 0 0-7.33 3.73L72.65 194.2a9 9 0 0 0-2.65 6.39v31.83a9 9 0 0 0 2.65 6.39L133 299l167-167-59.46-59.26a9 9 0 0 0-7.33-3.74z"/>
    <path class="cls-1" d="M25 255.47v-77.94a9 9 0 0 1 2.34-6.07C27.83 170.92 173 25.64 173 25.64c1.62-1.64 3.88-1.64 6.37-1.64h75.26c2.49 0 4.75 0 6.38 1.64l72.64 72.71L432 0H0v432l99.11-99.11-71.77-71.35a9 9 0 0 1-2.34-6.07z"/>
    <path class="cls-1" d="M333.65 98.35L300 132l61.36 61.18a9 9 0 0 1 2.65 6.39v31.83a9 9 0 0 1-2.65 6.39L238.54 359.26a9 9 0 0 1-7.33 3.73h-30.42a9 9 0 0 1-7.33-3.73L133 299l-33.9 33.9 73.9 73.46c1.63 1.63 3.89 1.64 6.38 1.64h75.26c2.49 0 4.75 0 6.38-1.64 0 0 145.16-145.28 145.65-145.82a9 9 0 0 0 2.34-6.07v-76.94a9 9 0 0 0-2.34-6.07c-.26-.27-36.67-36.72-73.02-73.11z"/>
</svg>
