<svg xmlns="http://www.w3.org/2000/svg" viewBox="0 0 432 432">
    <style>
        .st0{display:none}.st2{display:inline}.st10{fill:#f04e4c}.st11{display:inline}.st11,.st12{fill:none;stroke:#f04e4c;stroke-miterlimit:10}
    </style>
    <path d="M304.6 193.7h-66.1V104h-22.4c-12.4 0-22.4 10-22.4 22.4v67.3l-.2-.1v.1H104V216c0 12.3 10 22.3 22.4 22.3h67.3V328h22.4c12.4 0 22.4-10 22.4-22.4v-67.3.2-.2H327V216c0-12.3-10-22.3-22.4-22.3z" fill="#fff" id="Icons"/>
    <g id="Guides_x5F_extra" class="st0">
        <g class="st2">
            <path class="st10" d="M9 145c4.4 0 8 3.6 8 8s-3.6 8-8 8-8-3.6-8-8 3.6-8 8-8m0-1c-5 0-9 4-9 9s4 9 9 9 9-4 9-9-4-9-9-9z"/>
        </g>
        <g class="st2">
            <path class="st10" d="M9 82c4.4 0 8 3.6 8 8s-3.6 8-8 8-8-3.6-8-8 3.6-8 8-8m0-1c-5 0-9 4-9 9s4 9 9 9 9-4 9-9-4-9-9-9z"/>
        </g>
        <path class="st11" d="M149.4 1.1L0 150.4M85.4 1.1L-.2 86.7"/>
        <g class="st2">
            <path class="st10" d="M53.5 168c4.4 0 8 3.6 8 8s-3.6 8-8 8-8-3.6-8-8 3.6-8 8-8m0-1c-5 0-9 4-9 9s4 9 9 9 9-4 9-9-4-9-9-9z"/>
        </g>
        <g class="st2">
            <path class="st10" d="M175 46c4.4 0 8 3.6 8 8s-3.6 8-8 8-8-3.6-8-8 3.6-8 8-8m0-1c-5 0-9 4-9 9s4 9 9 9 9-4 9-9-4-9-9-9z"/>
        </g>
        <path class="st11" d="M215.8.7L.5 216"/>
        <g class="st2">
            <path class="st10" d="M431 1v430H1V1h430m1-1H0v432h432V0z"/>
        </g>
        <g class="st2">
            <path class="st10" d="M9 271c4.4 0 8 3.6 8 8s-3.6 8-8 8-8-3.6-8-8 3.6-8 8-8m0-1c-5 0-9 4-9 9s4 9 9 9 9-4 9-9-4-9-9-9z"/>
        </g>
        <g class="st2">
            <path class="st10" d="M9 334c4.4 0 8 3.6 8 8s-3.6 8-8 8-8-3.6-8-8 3.6-8 8-8m0-1c-5 0-9 4-9 9s4 9 9 9 9-4 9-9-4-9-9-9z"/>
        </g>
        <path class="st11" d="M149.4 430.9L0 281.6M85.4 430.9L-.2 345.3"/>
        <g class="st2">
            <path class="st10" d="M53.5 248c4.4 0 8 3.6 8 8s-3.6 8-8 8-8-3.6-8-8 3.6-8 8-8m0-1c-5 0-9 4-9 9s4 9 9 9 9-4 9-9-4-9-9-9z"/>
        </g>
        <g class="st2">
            <path class="st10" d="M175 370c4.4 0 8 3.6 8 8s-3.6 8-8 8-8-3.6-8-8 3.6-8 8-8m0-1c-5 0-9 4-9 9s4 9 9 9 9-4 9-9-4-9-9-9z"/>
        </g>
        <path class="st11" d="M215.8 431.3L.5 216"/>
        <g class="st2">
            <path class="st10" d="M431 1v430H1V1h430m1-1H0v432h432V0z"/>
        </g>
        <path class="st11" d="M103.5 1.1V431M327.7 1.1V431M430.5 103.9H.7M430.5 328.1H.7M103.5 1.1V431M430.5 103.9H.7M430.5 328.1H.7"/>
    </g>
    <g id="Guides_x5F_basic" class="st0">
        <path class="st11" d="M-.5 45h432M0 387h432M238.9.1v432M193.1-.1v432M45 1.1V431M387 0v432"/>
        <g class="st2">
            <path class="st10" d="M431 1v430H1V1h430m1-1H0v432h432V0z"/>
        </g>
        <g class="st2">
            <path class="st12" d="M216.1-.1v431.5"/>
        </g>
        <circle class="st11" cx="216" cy="216" r="170.5"/>
        <g class="st2">
            <path class="st10" d="M56 1c30.3 0 55 24.7 55 55s-24.7 55-55 55S1 86.3 1 56 25.7 1 56 1m0-1C25.1 0 0 25.1 0 56s25.1 56 56 56 56-25.1 56-56S86.9 0 56 0z"/>
        </g>
        <g class="st2">
            <path class="st10" d="M376 1c30.3 0 55 24.7 55 55s-24.7 55-55 55-55-24.7-55-55 24.7-55 55-55m0-1c-30.9 0-56 25.1-56 56s25.1 56 56 56 56-25.1 56-56-25.1-56-56-56z"/>
        </g>
        <g class="st2">
            <path class="st10" d="M56 321c30.3 0 55 24.7 55 55s-24.7 55-55 55-55-24.7-55-55 24.7-55 55-55m0-1c-30.9 0-56 25.1-56 56s25.1 56 56 56 56-25.1 56-56-25.1-56-56-56z"/>
        </g>
        <g class="st2">
            <path class="st10" d="M376 321c30.3 0 55 24.7 55 55s-24.7 55-55 55-55-24.7-55-55 24.7-55 55-55m0-1c-30.9 0-56 25.1-56 56s25.1 56 56 56 56-25.1 56-56-25.1-56-56-56z"/>
        </g>
        <g class="st2">
            <path class="st10" d="M74 46c15.7 0 28.5 12.8 28.5 28.5S89.7 103 74 103 45.5 90.3 45.5 74.5 58.3 46 74 46m0-1c-16.3 0-29.5 13.2-29.5 29.5S57.7 104 74 104s29.5-13.2 29.5-29.5S90.3 45 74 45z"/>
        </g>
        <g class="st2">
            <path class="st10" d="M357.2 46c15.7 0 28.5 12.8 28.5 28.5S372.9 103 357.2 103s-28.5-12.8-28.5-28.5S341.5 46 357.2 46m0-1c-16.3 0-29.5 13.2-29.5 29.5s13.2 29.5 29.5 29.5 29.5-13.2 29.5-29.5S373.5 45 357.2 45z"/>
        </g>
        <g class="st2">
            <path class="st10" d="M74 329c15.7 0 28.5 12.8 28.5 28.5S89.7 386 74 386s-28.5-12.8-28.5-28.5S58.3 329 74 329m0-1c-16.3 0-29.5 13.2-29.5 29.5S57.7 387 74 387s29.5-13.2 29.5-29.5S90.3 328 74 328z"/>
        </g>
        <g class="st2">
            <path class="st10" d="M357.2 329c15.7 0 28.5 12.8 28.5 28.5S372.9 386 357.2 386s-28.5-12.8-28.5-28.5 12.8-28.5 28.5-28.5m0-1c-16.3 0-29.5 13.2-29.5 29.5s13.2 29.5 29.5 29.5 29.5-13.2 29.5-29.5-13.2-29.5-29.5-29.5z"/>
        </g>
        <path class="st11" d="M431.5 32.9L32.7 431.6M399.5.1L.6 399.1"/>
        <g class="st2">
            <path class="st12" d="M432 0L0 432"/>
        </g>
        <path class="st11" d="M399 431.4L0 32.4M431 398.6L33 .6"/>
        <g class="st2">
            <path class="st12" d="M432 432L0 0"/>
        </g>
        <g class="st2">
            <path class="st10" d="M23 194c12.1 0 22 9.9 22 22s-9.9 22-22 22-22-9.9-22-22 9.9-22 22-22m0-1c-12.7 0-23 10.3-23 23s10.3 23 23 23 23-10.3 23-23-10.3-23-23-23z"/>
        </g>
        <g class="st2">
            <path class="st10" d="M409 194c12.1 0 22 9.9 22 22s-9.9 22-22 22-22-9.9-22-22 9.9-22 22-22m0-1c-12.7 0-23 10.3-23 23s10.3 23 23 23 23-10.3 23-23-10.3-23-23-23z"/>
        </g>
        <g class="st2">
            <path class="st10" d="M216 1c12.1 0 22 9.9 22 22s-9.9 22-22 22-22-9.9-22-22 9.9-22 22-22m0-1c-12.7 0-23 10.3-23 23s10.3 23 23 23 23-10.3 23-23-10.3-23-23-23z"/>
        </g>
        <g class="st2">
            <path class="st10" d="M216 387c12.1 0 22 9.9 22 22s-9.9 22-22 22-22-9.9-22-22 9.9-22 22-22m0-1c-12.7 0-23 10.3-23 23s10.3 23 23 23 23-10.3 23-23-10.3-23-23-23z"/>
        </g>
        <path class="st11" d="M431 238.9H-.2M431.2 193.1H0"/>
        <g class="st2">
            <path class="st12" d="M431.2 216.1H.5"/>
        </g>
    </g>
</svg>
